<?xml version="1.0" encoding="UTF-8"?>
<!DOCTYPE svg PUBLIC "-//W3C//DTD SVG 1.1//EN" "http://www.w3.org/Graphics/SVG/1.1/DTD/svg11.dtd">
<!-- Creator: CorelDRAW 2019 (64 Bit) -->
<svg xmlns="http://www.w3.org/2000/svg" xml:space="preserve" width="210mm" height="182mm" version="1.1" style="shape-rendering:geometricPrecision; text-rendering:geometricPrecision; image-rendering:optimizeQuality; fill-rule:evenodd; clip-rule:evenodd"
viewBox="0 0 21000 18200"
 xmlns:xlink="http://www.w3.org/1999/xlink">
 <defs>
  <style type="text/css">
   <![CDATA[
    .fil0 {fill:#F5F6F6;fill-rule:nonzero}
   ]]>
  </style>
 </defs>
 <g id="Camada_x0020_1">
  <metadata id="CorelCorpID_0Corel-Layer"/>
  <path class="fil0" d="M9538.68 4561.86l0 0c0,-237.75 191.37,-428.8 426.19,-428.8l1078.41 0 0 -1764.78c0,-237.75 191.37,-428.81 429.51,-428.81 238.19,0 429.56,191.06 429.56,428.81l0 2193.58c0,234.44 -191.37,428.81 -429.56,428.81l-1507.92 0c-234.82,0 -426.19,-194.37 -426.19,-428.81zm-6479.21 8286.73l0 38.86c2.93,66.64 21.34,133.47 56.38,194.82l2774.14 4796.99c75.3,131.42 219.46,215.96 369.94,215.96 75.17,0 150.47,-21.92 216.28,-59.5l1749.23 -1007.58c203.48,-115.75 275.79,-378.6 156.72,-582.01 0,0 0,-3.12 0,-3.12l-388.99 -666.49 677.26 -485 4275.62 -497.54c730.39,-87.6 1410.64,-425.56 1918.25,-957.56l2718.01 -2856.83c463.78,-485.12 457.53,-1251.76 -12.55,-1730.63l0 0c-391.92,-397.08 -999.87,-490.92 -1492.06,-221.89l-2933.97 1602.14c-188.44,-222.33 -454.61,-362.87 -746.25,-394.15l-2827.46 -266.16c-780.53,-75.05 -1560.99,143.91 -2184.79,613.17l-1670.75 1251.75 -109.71 -187.67c-119.13,-203.54 -379.3,-272.41 -586.15,-156.47l-1746.05 1007.38c-132.26,76.01 -206.79,211 -213.1,351.53zm8570.61 -12742.76l-314.65 0c-2395.53,80.97 -4312.69,2041.58 -4315.75,4456.03 3.12,2465.55 2002.91,4461.9 4473.11,4465.21l2.93 0 0 0c2470.19,0 4470.36,-2002.59 4470.36,-4465.21 -3.31,-2412.28 -1920.22,-4374.74 -4316,-4456.03zm-154.36 847.99l0 0c1996.79,3.37 3614.22,1618 3611.29,3610.97 0,1993.36 -1620.74,3608.05 -3617.54,3608.05 -1996.35,-3.38 -3610.85,-1618 -3610.85,-3610.98 2.94,-1993.36 1620.75,-3604.67 3614.17,-3608.04l2.93 0zm5485.71 9434.26l0 0 -2720.94 2860.2c-369.75,387.91 -861.94,631.9 -1391.78,694.59l-4388.45 513.15c-71.86,9.37 -140.79,34.4 -200.54,78.23l-692.74 497.54 -1419.94 -2450.06 1749.17 -1314.32c457.54,-341.2 1022.03,-500.53 1589.4,-447.59l2830.39 266.1c72.3,9.62 141.23,47.14 185.06,106.38 43.9,62.56 62.69,140.99 43.9,216.1 -22.17,118.87 -125.38,206.47 -247.76,212.71l-2307.23 84.22c-234.82,9.62 -419.95,206.91 -410.33,444.67 9.17,234.43 206.85,415.87 441.67,409.62l2307.24 -84.28c523.53,-15.86 962.21,-394.15 1059.62,-907.62 6.24,-34.21 9.17,-68.86 9.17,-103.01l3094 -1683.49c153.79,-84.67 344.72,-53.39 467.16,68.8 144.1,150.16 144.1,387.91 0,538.06l2.93 0zm-10544.79 6693.32l0 0 -2344.69 -4055.45 1006.17 -578.96 2344.69 4055.45 -1006.17 578.96z"/>
 </g>
</svg>
