<?xml version="1.0" encoding="UTF-8"?>
<!DOCTYPE svg PUBLIC "-//W3C//DTD SVG 1.1//EN" "http://www.w3.org/Graphics/SVG/1.1/DTD/svg11.dtd">
<!-- Creator: CorelDRAW 2019 (64 Bit) -->
<svg xmlns="http://www.w3.org/2000/svg" xml:space="preserve" width="210mm" height="182mm" version="1.1" style="shape-rendering:geometricPrecision; text-rendering:geometricPrecision; image-rendering:optimizeQuality; fill-rule:evenodd; clip-rule:evenodd"
viewBox="0 0 21000 18200"
 xmlns:xlink="http://www.w3.org/1999/xlink">
 <defs>
  <style type="text/css">
   <![CDATA[
    .fil0 {fill:#F5F6F6;fill-rule:nonzero}
   ]]>
  </style>
 </defs>
 <g id="Camada_x0020_1">
  <metadata id="CorelCorpID_0Corel-Layer"/>
  <g id="_1955002013600">
   <path class="fil0" d="M12772.24 12014.59l0 0c0,-223.29 113.2,-446.14 314.64,-577.37l21.28 0 0 1150.97 -21.28 0c-201.44,-127.47 -314.64,-332.86 -314.64,-573.6zm1337.44 2004.57l0 0c0,240.8 -130.66,463.97 -335.86,573.73l-17.96 0 0 -1168.62 17.96 0c205.2,148.63 335.86,371.72 335.86,594.89zm276.48 -2171.23l0 0c130.66,127.48 332.61,127.48 463.27,0 131.17,-130.79 131.17,-336.11 0,-463.59 -35.36,-39.17 -498.63,-503.27 -1093.57,-634l0 -202.07c0,-187.42 -148.57,-336.62 -332.61,-336.62 -187.23,0 -336.37,149.2 -336.37,319.16l0 219.53c-573.16,148.69 -980.31,686.88 -980.31,1282.21 0,594.82 389.69,1133.01 980.31,1281.7l0 1278.64 -17.46 0c-258.51,-131.04 -499.07,-371.85 -594.37,-481.68 -109.96,-130.98 -333.12,-148.75 -463.78,-38.92 -127.35,113.33 -148.63,336.49 -35.36,463.97 35.36,74.34 537.81,595.01 1093.51,782.69l0 219.59c0,187.74 148.63,336.43 332.61,336.43 187.81,0 336.37,-148.69 336.37,-336.43l0 -201.88c591.13,-148.69 1019.04,-687.07 1019.04,-1299.79 0,-612.6 -427.91,-1150.79 -1019.04,-1299.99l0 -1317.12 17.46 0c279.79,113.27 538.31,332.8 630.3,428.17z"/>
   <polygon class="fil0" points="5113.33,5016.31 5113.33,5016.31 10029.38,5016.31 10029.38,6167.28 5113.33,6167.28 "/>
   <polygon class="fil0" points="5077.91,13852.69 5077.91,13852.69 7431.33,13852.69 7431.33,15000.16 5077.91,15000.16 "/>
   <polygon class="fil0" points="5077.91,10920.31 5077.91,10920.31 7395.97,10920.31 7395.97,12050.01 5077.91,12050.01 "/>
   <polygon class="fil0" points="5095.62,8115.15 5095.62,8115.15 8599.44,8115.15 8599.44,9191.97 5095.62,9191.97 "/>
   <path class="fil0" d="M13423.31 17210.18l0 0c-2374.89,0 -4303.52,-1930.16 -4303.52,-4306.64 0,-2372.73 1928.63,-4303.14 4303.46,-4303.14 2371.13,17.96 4300.21,1930.41 4300.21,4303.14 0,2376.48 -1929.08,4306.64 -4300.15,4306.64zm92.25 -17183.89l-11219.44 0 0 18094.12 10440.76 0c222.65,35.42 463.27,56.64 686.43,56.64 2909.38,0 5266.31,-2376.42 5266.31,-5273.51 0,-1689.16 -796.32,-3208.8 -2059.74,-4175.67l0 0 0 -5567.32 -3114.32 -3134.26zm-10164.72 17074.13l0 0 0 -16018.97 8975.58 0 0 3269.19 3266.52 0 0 3746.99c-668.97,-297.38 -1390.76,-464.03 -2151.73,-464.03 -2912.69,0 -5266.37,2376.48 -5266.37,5269.94 0,1707.06 813.84,3230.01 2077.19,4196.88l-6901.19 0zm9810.58 -16167.66l0 0 2523.51 2525.17 -2523.51 0 0 -2525.17z"/>
  </g>
 </g>
</svg>
