<?xml version="1.0" encoding="UTF-8"?>
<!DOCTYPE svg PUBLIC "-//W3C//DTD SVG 1.1//EN" "http://www.w3.org/Graphics/SVG/1.1/DTD/svg11.dtd">
<!-- Creator: CorelDRAW 2019 (64 Bit) -->
<svg xmlns="http://www.w3.org/2000/svg" xml:space="preserve" width="210mm" height="182mm" version="1.1" style="shape-rendering:geometricPrecision; text-rendering:geometricPrecision; image-rendering:optimizeQuality; fill-rule:evenodd; clip-rule:evenodd"
viewBox="0 0 21000 18200"
 xmlns:xlink="http://www.w3.org/1999/xlink">
 <defs>
  <style type="text/css">
   <![CDATA[
    .fil0 {fill:#F5F6F6;fill-rule:nonzero}
   ]]>
  </style>
 </defs>
 <g id="Camada_x0020_1">
  <metadata id="CorelCorpID_0Corel-Layer"/>
  <g id="_1956272481392">
   <path class="fil0" d="M19917.83 2313.93l0 0 -1553.53 0 0 -1754.84c0,-244.38 -163.73,-445.37 -388.48,-504.04l-3834.65 0c-1356.93,102.69 -2645.26,659.42 -3650.98,1590.73 -1002.41,-931.31 -2290.42,-1488.04 -3647.29,-1590.73l-3831.4 0c-224.69,58.67 -388.41,259.66 -388.41,504.04l0 1754.84 -1553.53 0c-439,0 -792.25,353.25 -792.25,788.74l0 9227.93c0,288.39 236.67,524.61 524.75,524.61 288.07,0 524.68,-236.22 524.68,-524.61l0 -8967.43 1292.91 0 0 2043.17c0,287.89 236.6,520.99 524.74,520.99 291.52,0 524.68,-233.1 524.68,-520.99l0 -4323.08 2726.55 0c1347.76,0 2637.04,548.83 3573.39,1511.68l0 1196.39c0,291.59 236.8,524.62 524.87,524.62 291.2,0 524.37,-233.03 524.37,-524.62l0 -1196.39c939.98,-969.73 2229.26,-1518.56 3580.71,-1518.56l2726.17 0 0 11570.01 -2726.17 0c-1718.14,0 -3353.92,733.51 -4495.97,2012.08 -195.71,215.97 -175.13,548.51 41.15,740.46 215.77,192.01 548.57,174.87 740.64,-41.16 946.35,-1059.24 2297.81,-1662.59 3714.18,-1662.59l3233.65 0c288.52,0 524.87,-236.73 524.87,-524.62l0 -9807.39 1292.91 0 0 11847.25 -4904.2 0c-1179.58,0 -2304.69,503.91 -3093.37,1384.9l-41.15 44.6c-58.04,58.29 -116.58,109.7 -181.5,161.11l-79.06 54.85c-58.1,37.71 -116.58,71.99 -178.31,99.44l-44.85 23.96 -85.49 34.27c-44.79,20.58 -89.13,37.72 -133.91,51.41 -27.46,0 -61.74,17.14 -106.07,27.46 -68.62,13.7 -140.86,24.02 -209.41,27.46 -130.27,6.81 -260.62,0 -387.26,-27.46l-123.4 -27.46c-51.67,-13.69 -102.89,-27.39 -150.86,-47.97l-72.24 -44.53 -23.83 -10.32 -13.69 0c-69.06,-34.27 -133.98,-71.99 -195.64,-113.14l-54.92 -37.71c-75.43,-54.86 -143.97,-113.08 -209.34,-178.19l-20.57 -20.64 -16.95 -17.14c-781.8,-884.43 -1906.91,-1388.34 -3090.11,-1381.46l-843.53 0c-291.65,0 -524.81,236.54 -524.81,524.49 0,287.95 233.16,524.49 524.81,524.49l850.41 0c881.43,-10.32 1721.71,363.38 2304.62,1021.53l37.97 44.53 27.45 27.52c102.83,109.63 215.78,209.02 335.99,298.2l102.88 68.55c102.89,68.55 208.96,130.28 322.36,185.13l13.69 0 30.65 13.7 133.91 61.73 23.82 0c79.06,27.39 161.37,54.85 243.68,75.36 41.15,10.32 99.63,27.46 164.55,37.72 171.43,34.33 342.93,51.47 514.36,51.47l150.86 0c116.58,-3.44 233.16,-13.76 346.56,-34.34 82.3,-13.69 147.22,-34.27 185.12,-44.53 79.13,-20.57 154.55,-44.59 229.98,-71.98 58.1,-20.58 112.95,-44.6 164.62,-68.55l58.03 -27.46c102.89,-51.41 198.89,-106.26 294.9,-167.99 44.78,-30.84 89.12,-58.23 130.28,-92.5 109.76,-82.31 209.4,-168 301.77,-264l79.06 -82.24c586.6,-658.21 1423.25,-1031.85 2304.69,-1035.29l5174.89 0c435.75,0 792.31,-353.06 792.31,-788.42l0 -12371.94c-3.19,-435.55 -356.56,-785.11 -792.31,-785.11z"/>
   <path class="fil0" d="M1433.06 15196.72l0 0 2891.04 -2889.89c82.31,96.01 164.61,195.65 257.24,284.71 92.57,89.12 188.64,174.61 288.21,256.86l-2898.05 2889.95c-137.15,161.11 -377.26,181.69 -538.44,41.09 -161.17,-137.09 -181.75,-377.07 -44.59,-538.19 13.69,-17.13 27.46,-30.83 44.59,-44.53zm3889.12 -8494.79l0 0 0 0c1423.19,-1418.99 3727.87,-1418.99 5147.43,0 1423.26,1419.37 1423.26,3723.03 0,5145.65 -1419.56,1418.98 -3724.24,1422.61 -5147.43,0 -682.55,-682.29 -1063.19,-1607.68 -1063.19,-2570.98 -3.44,-966.99 380.64,-1892.38 1063.19,-2574.67zm-4629.89 9780.31l0 0c559.02,555.33 1464.41,555.33 2023.43,0l3038.51 -3037.49c2300.99,1182.89 5126.86,274.44 6310.07,-2029.03 1183.21,-2300.49 277.95,-5128.77 -2026.74,-6311.47 -2304.69,-1179.01 -5130.55,-274.19 -6313.57,2029.54 -689.36,1347.19 -689.36,2941.62 3.44,4288.81l-3035.14 3033.61c-555.58,558.82 -555.58,1463.83 0,2026.03z"/>
   <path class="fil0" d="M7897.49 8751.98l0 0c288.01,0 524.87,233.04 524.87,524.62 0,287.89 -236.86,524.11 -524.87,524.11 -291.2,0 -524.37,-236.22 -524.37,-524.11 0,-291.58 233.17,-524.62 524.37,-524.62z"/>
   <path class="fil0" d="M9766.49 8751.98l0 0c291.65,0 524.81,233.04 524.81,524.62 0,287.89 -233.16,524.11 -524.81,524.11 -288.08,0 -521.24,-236.22 -521.24,-524.11 0,-291.58 233.16,-524.62 521.24,-524.62z"/>
   <path class="fil0" d="M6025.3 8751.98l0 0c291.26,0 524.43,233.04 524.43,524.62 0,287.89 -233.17,524.11 -524.43,524.11 -288.01,0 -524.81,-236.22 -524.87,-524.11 0,-291.58 236.86,-524.62 524.87,-524.62z"/>
  </g>
 </g>
</svg>
