<?xml version="1.0" encoding="UTF-8"?>
<!DOCTYPE svg PUBLIC "-//W3C//DTD SVG 1.1//EN" "http://www.w3.org/Graphics/SVG/1.1/DTD/svg11.dtd">
<!-- Creator: CorelDRAW 2019 (64 Bit) -->
<svg xmlns="http://www.w3.org/2000/svg" xml:space="preserve" width="210mm" height="182mm" version="1.1" style="shape-rendering:geometricPrecision; text-rendering:geometricPrecision; image-rendering:optimizeQuality; fill-rule:evenodd; clip-rule:evenodd"
viewBox="0 0 21000 18200"
 xmlns:xlink="http://www.w3.org/1999/xlink">
 <defs>
  <style type="text/css">
   <![CDATA[
    .fil0 {fill:#F5F6F6;fill-rule:nonzero}
   ]]>
  </style>
 </defs>
 <g id="Camada_x0020_1">
  <metadata id="CorelCorpID_0Corel-Layer"/>
  <path class="fil0" d="M11977.18 11111.52l0 0c-74.85,767.15 -656.87,1406.44 -1442.3,1591.57l-74.85 20.7 0 693.06c0,110.27 -92.76,205.83 -206.22,205.83l-731.66 0c-110.27,0 -205.83,-95.56 -205.83,-205.83l0 -675.16 -74.79 0c-710.64,-113.46 -1272.34,-692.67 -1349.93,-1424.33 0,-56.58 21.09,-110.28 56.89,-149.33 38.61,-56.51 95.56,-74.41 149.33,-74.41l749.56 0c95.56,0 188.31,56.51 206.22,149.26 38.6,205.84 226.92,355.1 432.75,355.1l654 0c376.63,0 675.22,-259.54 713.83,-597.12 17.9,-188.31 -38.61,-376.18 -170.03,-525.51 -131.36,-149.26 -316.88,-224.11 -486.84,-224.11l-486.84 0c-973.75,0 -1818.87,-713.76 -1893.34,-1648.07 -92.76,-937.88 525.51,-1779.88 1442.3,-1968.13l74.79 -17.97 0 -692.67c0,-113.4 95.56,-206.15 205.83,-206.15l731.73 0c113.4,0 206.15,92.75 206.15,206.15l0 672.03 74.86 20.64c731.72,110.72 1293.03,692.68 1349.54,1421.6 0,56.51 -17.9,113.46 -56.51,152.06 -35.86,35.87 -92.75,74.86 -167.22,74.86l-749.63 0c-95.5,0 -188.25,-74.86 -206.15,-170.41 -56.57,-205.77 -226.92,-355.1 -433.14,-355.1l-654.07 0c-376.18,0 -674.77,262.79 -713.76,599.98 -17.96,206.15 38.99,373.38 170.35,522.64 131.36,152.52 319.68,226.92 504.81,226.92l561.31 0c507.93,0 1012.28,224.12 1349.93,597.57 355.47,394.08 525.82,901.62 468.93,1424.33zm6699.76 -10893.7l-829.07 0 -2687.18 104.73c-486.9,17.9 -859.9,429.89 -842,916.35 17.97,486.9 412.05,863.08 919.6,845.18l1030.25 -38.6 -2418.78 2415.59c-1105.11,-842 -2472.94,-1346.74 -3972.13,-1346.74 -3613.46,0 -6573.17,2938.31 -6573.17,6572.86 0,1498.8 504.74,2866.63 1346.93,3971.29l-2810.32 2830.96c-167.23,168.76 -250.87,393.45 -250.87,620.37 0,226.99 83.64,456.14 250.87,633.81 170.29,149.33 394.21,241.89 618.2,241.89 223.99,0 450.98,-92.56 618.2,-259.79l2849.12 -2830.9c1105.11,845.12 2472.94,1349.8 3972.13,1349.8 3613.46,0 6576.04,-2941.23 6576.04,-6575.78 0,-1498.81 -507.55,-2866.64 -1349.93,-3971.3l2416.04 -2416.04 -35.86 1030.25c-20.71,486.9 355.54,898.89 842.38,916.79l35.8 0c468.94,0 863.09,-373.38 880.99,-841.94l131.36 -3296.97c-17.9,-223.73 -92.75,-468.55 -280.62,-635.72l0 0c-117.16,-119.38 -272.41,-199.08 -437.98,-236.09z"/>
  <g id="_1955308011600">
   <path class="fil0" d="M42611.69 -15277.14l0 0 -1553.53 0 0 -1754.84c0,-244.38 -163.73,-445.37 -388.48,-504.04l-3834.65 0c-1356.93,102.69 -2645.26,659.42 -3650.98,1590.73 -1002.41,-931.31 -2290.42,-1488.04 -3647.29,-1590.73l-3831.4 0c-224.69,58.67 -388.41,259.66 -388.41,504.04l0 1754.84 -1553.53 0c-439,0 -792.25,353.25 -792.25,788.74l0 9227.93c0,288.39 236.67,524.61 524.75,524.61 288.07,0 524.68,-236.22 524.68,-524.61l0 -8967.43 1292.91 0 0 2043.17c0,287.89 236.6,520.99 524.74,520.99 291.52,0 524.68,-233.1 524.68,-520.99l0 -4323.08 2726.55 0c1347.76,0 2637.04,548.83 3573.39,1511.68l0 1196.39c0,291.59 236.8,524.62 524.87,524.62 291.2,0 524.37,-233.03 524.37,-524.62l0 -1196.39c939.98,-969.73 2229.26,-1518.56 3580.71,-1518.56l2726.17 0 0 11570.01 -2726.17 0c-1718.14,0 -3353.92,733.51 -4495.97,2012.08 -195.71,215.97 -175.13,548.51 41.15,740.46 215.77,192.01 548.57,174.87 740.64,-41.16 946.35,-1059.24 2297.81,-1662.59 3714.18,-1662.59l3233.65 0c288.52,0 524.87,-236.73 524.87,-524.62l0 -9807.39 1292.91 0 0 11847.25 -4904.2 0c-1179.58,0 -2304.69,503.91 -3093.37,1384.9l-41.15 44.6c-58.04,58.29 -116.58,109.7 -181.5,161.11l-79.06 54.85c-58.1,37.71 -116.58,71.99 -178.31,99.44l-44.85 23.96 -85.49 34.27c-44.79,20.58 -89.13,37.72 -133.91,51.41 -27.46,0 -61.74,17.14 -106.07,27.46 -68.62,13.7 -140.86,24.02 -209.41,27.46 -130.27,6.81 -260.62,0 -387.26,-27.46l-123.4 -27.46c-51.67,-13.69 -102.89,-27.39 -150.86,-47.97l-72.24 -44.53 -23.83 -10.32 -13.69 0c-69.06,-34.27 -133.98,-71.99 -195.64,-113.14l-54.92 -37.71c-75.43,-54.86 -143.97,-113.08 -209.34,-178.19l-20.57 -20.64 -16.95 -17.14c-781.8,-884.43 -1906.91,-1388.34 -3090.11,-1381.46l-843.53 0c-291.65,0 -524.81,236.54 -524.81,524.49 0,287.95 233.16,524.49 524.81,524.49l850.41 0c881.43,-10.32 1721.71,363.38 2304.62,1021.53l37.97 44.53 27.45 27.52c102.83,109.63 215.78,209.02 335.99,298.2l102.88 68.55c102.89,68.55 208.96,130.28 322.36,185.13l13.69 0 30.65 13.7 133.91 61.73 23.82 0c79.06,27.39 161.37,54.85 243.68,75.36 41.15,10.32 99.63,27.46 164.55,37.72 171.43,34.33 342.93,51.47 514.36,51.47l150.86 0c116.58,-3.44 233.16,-13.76 346.56,-34.34 82.3,-13.69 147.22,-34.27 185.12,-44.53 79.13,-20.57 154.55,-44.59 229.98,-71.98 58.1,-20.58 112.95,-44.6 164.62,-68.55l58.03 -27.46c102.89,-51.41 198.89,-106.26 294.9,-167.99 44.78,-30.84 89.12,-58.23 130.28,-92.5 109.76,-82.31 209.4,-168 301.77,-264l79.06 -82.24c586.6,-658.21 1423.25,-1031.85 2304.69,-1035.29l5174.89 0c435.75,0 792.31,-353.06 792.31,-788.42l0 -12371.94c-3.19,-435.55 -356.56,-785.11 -792.31,-785.11z"/>
   <path class="fil0" d="M24126.92 -2394.35l0 0 2891.04 -2889.89c82.31,96.01 164.61,195.65 257.24,284.71 92.57,89.12 188.64,174.61 288.21,256.86l-2898.05 2889.95c-137.15,161.11 -377.26,181.69 -538.44,41.09 -161.17,-137.09 -181.75,-377.07 -44.59,-538.19 13.69,-17.13 27.46,-30.83 44.59,-44.53zm3889.12 -8494.79l0 0 0 0c1423.19,-1418.99 3727.87,-1418.99 5147.43,0 1423.26,1419.37 1423.26,3723.03 0,5145.65 -1419.56,1418.98 -3724.24,1422.61 -5147.43,0 -682.55,-682.29 -1063.19,-1607.68 -1063.19,-2570.98 -3.44,-966.99 380.64,-1892.38 1063.19,-2574.67zm-4629.89 9780.31l0 0c559.02,555.33 1464.41,555.33 2023.43,0l3038.51 -3037.49c2300.99,1182.89 5126.86,274.44 6310.07,-2029.03 1183.21,-2300.49 277.95,-5128.77 -2026.74,-6311.47 -2304.69,-1179.01 -5130.55,-274.19 -6313.57,2029.54 -689.36,1347.19 -689.36,2941.62 3.44,4288.81l-3035.14 3033.61c-555.58,558.82 -555.58,1463.83 0,2026.03z"/>
   <path class="fil0" d="M30591.35 -8839.09l0 0c288.01,0 524.87,233.04 524.87,524.62 0,287.89 -236.86,524.11 -524.87,524.11 -291.2,0 -524.37,-236.22 -524.37,-524.11 0,-291.58 233.17,-524.62 524.37,-524.62z"/>
   <path class="fil0" d="M32460.35 -8839.09l0 0c291.65,0 524.81,233.04 524.81,524.62 0,287.89 -233.16,524.11 -524.81,524.11 -288.08,0 -521.24,-236.22 -521.24,-524.11 0,-291.58 233.16,-524.62 521.24,-524.62z"/>
   <path class="fil0" d="M28719.16 -8839.09l0 0c291.26,0 524.43,233.04 524.43,524.62 0,287.89 -233.17,524.11 -524.43,524.11 -288.01,0 -524.81,-236.22 -524.87,-524.11 0,-291.58 236.86,-524.62 524.87,-524.62z"/>
  </g>
  <g id="_1955308009328">
   <polygon class="fil0" points="-10729.69,-4153.05 -10729.69,-4153.05 -11777.2,-4153.05 -11777.2,-12209.29 -13571.16,-12209.29 -13571.16,-4153.05 -14293.58,-4153.05 -14293.58,-11467.25 -16084.42,-11467.25 -16084.42,-4153.05 -16806.4,-4153.05 -16806.4,-9448.41 -18600.36,-9448.41 -18600.36,-4153.05 -19319.66,-4153.05 -19319.66,-6822.64 -21113.62,-6822.64 -21113.62,-4153.05 -21835.59,-4153.05 -21835.66,-10186.88 -23629.55,-10186.88 -23629.55,-4153.05 -24352.04,-4153.05 -24352.04,-7690.25 -26142.62,-7690.25 -26142.62,-4153.05 -27190.52,-4153.05 -27190.52,-3099.8 -10729.69,-3099.8 "/>
   <path class="fil0" d="M-10000.45 -2327.05l0 0 -17919.18 0 16.94 -11047.42 17902.24 20.32 0 11027.1zm243.74 -12280.83l-18408.89 0c-580.3,121.36 -1018.98,635.97 -1018.98,1253.73l0 12551.46c0,708.03 573.1,1283.93 1281.89,1283.93l5836.48 0 0 1683.74 -1237.87 0c-234.18,0 -420.46,189.72 -420.46,423.46l0 525.12c0,233.74 186.28,423.46 420.46,423.46l8688.14 0c234.19,0 420.46,-189.72 420.46,-423.46l0 -525.12c0,-233.74 -186.27,-423.46 -420.46,-423.46l-1237.86 0 0 -1683.74 5833.03 0c708.92,0 1285.33,-575.9 1285.33,-1283.93l0 -12551.46c0,-617.76 -438.61,-1132.37 -1021.27,-1253.73zm-9213.46 14309.93l0 0c-366.24,0 -664.58,-298.08 -664.58,-663.82 0,-365.86 298.34,-664.38 664.58,-664.38 366.18,0 664.58,298.52 664.58,664.38 0,365.74 -298.4,663.82 -664.58,663.82z"/>
  </g>
  <g id="_1955308000144">
   <path class="fil0" d="M-20500.42 28460.22l0 0c0,-223.29 113.2,-446.14 314.64,-577.37l21.28 0 0 1150.97 -21.28 0c-201.44,-127.47 -314.64,-332.86 -314.64,-573.6zm1337.44 2004.57l0 0c0,240.8 -130.66,463.97 -335.86,573.73l-17.96 0 0 -1168.62 17.96 0c205.2,148.63 335.86,371.72 335.86,594.89zm276.48 -2171.23l0 0c130.66,127.48 332.61,127.48 463.27,0 131.17,-130.79 131.17,-336.11 0,-463.59 -35.36,-39.17 -498.63,-503.27 -1093.57,-634l0 -202.07c0,-187.42 -148.57,-336.62 -332.61,-336.62 -187.23,0 -336.37,149.2 -336.37,319.16l0 219.53c-573.16,148.69 -980.31,686.88 -980.31,1282.21 0,594.82 389.69,1133.01 980.31,1281.7l0 1278.64 -17.46 0c-258.51,-131.04 -499.07,-371.85 -594.37,-481.68 -109.96,-130.98 -333.12,-148.75 -463.78,-38.92 -127.35,113.33 -148.63,336.49 -35.36,463.97 35.36,74.34 537.81,595.01 1093.51,782.69l0 219.59c0,187.74 148.63,336.43 332.61,336.43 187.81,0 336.37,-148.69 336.37,-336.43l0 -201.88c591.13,-148.69 1019.04,-687.07 1019.04,-1299.79 0,-612.6 -427.91,-1150.79 -1019.04,-1299.99l0 -1317.12 17.46 0c279.79,113.27 538.31,332.8 630.3,428.17z"/>
   <polygon class="fil0" points="-28159.33,21461.94 -28159.33,21461.94 -23243.28,21461.94 -23243.28,22612.91 -28159.33,22612.91 "/>
   <polygon class="fil0" points="-28194.75,30298.32 -28194.75,30298.32 -25841.33,30298.32 -25841.33,31445.79 -28194.75,31445.79 "/>
   <polygon class="fil0" points="-28194.75,27365.94 -28194.75,27365.94 -25876.69,27365.94 -25876.69,28495.64 -28194.75,28495.64 "/>
   <polygon class="fil0" points="-28177.04,24560.78 -28177.04,24560.78 -24673.22,24560.78 -24673.22,25637.6 -28177.04,25637.6 "/>
   <path class="fil0" d="M-19849.35 33655.81l0 0c-2374.89,0 -4303.52,-1930.16 -4303.52,-4306.64 0,-2372.73 1928.63,-4303.14 4303.46,-4303.14 2371.13,17.96 4300.21,1930.41 4300.21,4303.14 0,2376.48 -1929.08,4306.64 -4300.15,4306.64zm92.25 -17183.89l-11219.44 0 0 18094.12 10440.76 0c222.65,35.42 463.27,56.64 686.43,56.64 2909.38,0 5266.31,-2376.42 5266.31,-5273.51 0,-1689.16 -796.32,-3208.8 -2059.74,-4175.67l0 0 0 -5567.32 -3114.32 -3134.26zm-10164.72 17074.13l0 0 0 -16018.97 8975.58 0 0 3269.19 3266.52 0 0 3746.99c-668.97,-297.38 -1390.76,-464.03 -2151.73,-464.03 -2912.69,0 -5266.37,2376.48 -5266.37,5269.94 0,1707.06 813.84,3230.01 2077.19,4196.88l-6901.19 0zm9810.58 -16167.66l0 0 2523.51 2525.17 -2523.51 0 0 -2525.17z"/>
  </g>
 </g>
</svg>
