<?xml version="1.0" encoding="UTF-8"?>
<!DOCTYPE svg PUBLIC "-//W3C//DTD SVG 1.1//EN" "http://www.w3.org/Graphics/SVG/1.1/DTD/svg11.dtd">
<!-- Creator: CorelDRAW 2019 (64 Bit) -->
<svg xmlns="http://www.w3.org/2000/svg" xml:space="preserve" width="210mm" height="182mm" version="1.1" style="shape-rendering:geometricPrecision; text-rendering:geometricPrecision; image-rendering:optimizeQuality; fill-rule:evenodd; clip-rule:evenodd"
viewBox="0 0 21000 18200"
 xmlns:xlink="http://www.w3.org/1999/xlink">
 <defs>
  <style type="text/css">
   <![CDATA[
    .fil0 {fill:#F5F6F6;fill-rule:nonzero}
   ]]>
  </style>
 </defs>
 <g id="Camada_x0020_1">
  <metadata id="CorelCorpID_0Corel-Layer"/>
  <path class="fil0" d="M18533.58 1668.41l0 0c0,644.77 -931.96,1703.62 -1414.53,1951.5 -482.95,-231.57 -1375.28,-1253.79 -1375.28,-1951.5 0,-304.77 248.07,-552.58 552.14,-552.58 198.31,0 376.75,105.81 482.57,267.69 92.5,126.14 214.56,195.32 376.76,195.32 142.31,0 287.69,-69.18 376.75,-195.32 125.57,-214.82 393.51,-304.33 624.83,-231.57 198.32,52.94 376.76,268.13 376.76,516.46zm856.2 0l0 -93.2c-18.03,-533.03 -349.11,-991.71 -839.45,-1213.53l0 0c-160.28,-71.74 -330.7,-110.53 -502.07,-119.07l-145.25 0c-278.64,13.63 -553.03,105.5 -783.96,264.57 -206.98,-152 -445.88,-240.68 -694.2,-264.57l-275.85 0c-155.19,14.72 -310.76,54.34 -461.61,119.07 -518.7,234.62 -855.76,754.15 -855.76,1306.73 0,1200.41 1411.4,2705.65 2181.22,2848.1 36.63,0 53.32,16.75 89.51,16.75 36.57,0 72.69,0 125.56,-16.75 697.58,-198.45 2161.86,-1664 2161.86,-2848.1zm-10032.46 770.46l0 0c-482.51,162.26 -839.45,572.4 -948.77,1075.16l-4901.98 0c-571.82,0 -1034.58,-466.13 -1034.58,-1038.59 0,-572.4 462.76,-1039.05 1034.58,-1039.05l5830.94 0 0 1002.48 19.81 0zm876.02 0l0 0 0 -1002.48 2360.17 0c571.95,0 1038.22,466.65 1038.22,1039.05 0,572.46 -466.27,1038.59 -1038.22,1038.59l-1411.46 0c-109.26,-502.76 -466.2,-912.9 -948.71,-1075.16zm-3130.45 7195.19l0 0c142.32,72.76 251.2,178.64 304.07,324.14l1021.46 2739.16c69.63,195.39 267.89,321.08 482.96,284.51 214.56,-36.18 356.94,-214.81 356.94,-430.01l0 -8769.69c0,-142.45 52.88,-287.95 161.69,-377.07 195.19,-195.33 552.14,-195.33 750.45,0 105.75,108.93 162.13,234.62 162.13,377.07l0 178.63 0 3543.13 0 19.88 0 2665.96c0,251.83 194.82,446.77 446.01,446.77 231.31,0 430.08,-194.94 446.38,-426.96l0 -949.02 0 -19.88 0 -1716.87c0,-142.45 52.88,-268.14 142.32,-377.52 198.26,-194.94 555.2,-194.94 769.83,0 105.75,109.38 162.13,251.83 162.13,393.83l0 754.15 0 767.78 0 1898.63c0,251.38 195.26,446.7 446.38,446.7 231.38,0 429.7,-195.32 446.01,-429.95l0 -1932.13 0 -770.91c0,-142 56.38,-284.45 162.13,-377.07 195.19,-194.88 555.26,-194.88 770.27,0 105.75,109.38 158.63,251.38 158.63,396.95l0 787.66 0 714.46 0 1951.5c0,284.89 234.43,446.77 449.5,446.77 215.01,0 446.39,-161.88 446.39,-446.77l0 -1951.5 0 -714.46c0,-145.57 52.88,-288.02 161.69,-377.52 195.26,-198.45 552.14,-198.45 767.21,0 108.81,105.87 161.68,231.95 161.68,393.82l0.07 4187.9c16.69,1611.31 -1001.65,3027.18 -2538.68,3526.69 -680.83,198.51 -1361.65,287.83 -2075.92,287.83 -2951.56,-52.94 -3989.77,-2345.46 -4346.65,-3705.14 -251.2,-932.71 -535.45,-1862.44 -876.09,-2758.97l-109.25 -284.51c-52.88,-142.45 -52.88,-304.26 20.26,-446.71 52.87,-145.56 178.5,-251.38 320.37,-304.32 125.57,-36.18 287.76,-19.87 429.63,33.06zm8515.31 -1984.56l0 0c-215.07,0 -429.63,52.94 -608.13,142 -72.69,-194.94 -178.44,-377.08 -323.88,-535.83 -267.89,-268.14 -624.83,-413.71 -1001.59,-413.71 -215.07,0 -426.57,52.94 -624.89,145.57 -72.69,-181.69 -178.44,-340.51 -304.07,-486.01 -267.88,-268.14 -624.82,-410.14 -1001.58,-410.14 -178.5,0 -356.94,36.19 -535.38,105.82l0 -1806.38 1374.83 0c1058.03,0 1913.79,-860.03 1913.79,-1915.38 0,-1055.36 -875.57,-1915.32 -1930.1,-1915.32l-2773.49 0 -16.76 0 -19.81 0 -6260.57 0c-1054.46,16.31 -1894.04,859.96 -1910.6,1915.32 0,1055.35 856.14,1915.38 1910.6,1915.38l4865.86 0 0 5709.83 -158.63 -429.95c-287.76,-751.1 -1110.91,-1128.17 -1860.91,-840.6 -357.2,142.44 -644.84,410.58 -806.78,751.03 -158.69,357.26 -178.5,751.09 -33,1111.85l105.76 284.45c320.63,876.72 608.01,1772.87 839.77,2666.22 429.63,1611.06 1665.71,4297.28 5080.35,4317.09l72.75 0 89.44 0c733.7,0 1464.28,-109.13 2161.86,-324.2 1913.79,-608.64 3166.57,-2361.96 3149.81,-4350.41l0 -4204.2c0,-377.52 -141.87,-754.6 -412.88,-1002.42 -248.07,-271.26 -608.07,-430.01 -981.77,-430.01z"/>
 </g>
</svg>
