<svg id="Camada_1" data-name="Camada 1" xmlns="http://www.w3.org/2000/svg" viewBox="0 0 423.98 92"><defs><style>.cls-1{fill:#fff;stroke:#fff;stroke-miterlimit:10;stroke-width:2px;}</style></defs><title>logo-title</title><path class="cls-1" d="M69.82,80V12.8H99.6q9,0,13.66,1.8A14.91,14.91,0,0,1,120.72,21a19.06,19.06,0,0,1,2.8,10.13,16.84,16.84,0,0,1-4.64,12.05q-4.65,4.89-14.28,6.23A23.25,23.25,0,0,1,110,52.74a46.17,46.17,0,0,1,7.37,8.94L129,80H117.84L109,66q-3.89-6-6.42-9.23A20.73,20.73,0,0,0,98,52.25a13.59,13.59,0,0,0-4-1.78,26.46,26.46,0,0,0-5-.32H78.7V80ZM78.7,42.44H97.8a28.66,28.66,0,0,0,9.53-1.26,10.17,10.17,0,0,0,5.22-4,10.81,10.81,0,0,0,1.79-6,10,10,0,0,0-3.46-7.83q-3.45-3.08-10.93-3.07H78.7Z" transform="translate(-1.06 -0.97)"/><path class="cls-1" d="M137.08,80V12.8h25.2q7.69,0,12.35,2a15.89,15.89,0,0,1,7.28,6.28A16.49,16.49,0,0,1,184.54,30a15.17,15.17,0,0,1-2.33,8.1,16.67,16.67,0,0,1-7.06,6.14,17.52,17.52,0,0,1,9.36,6.1,16.25,16.25,0,0,1,3.26,10.17,19.59,19.59,0,0,1-2,8.77,16.89,16.89,0,0,1-4.92,6.25,20.8,20.8,0,0,1-7.36,3.33A44.84,44.84,0,0,1,162.67,80ZM146,41h14.52a32.4,32.4,0,0,0,8.48-.78,9.42,9.42,0,0,0,5.1-3.34A9.61,9.61,0,0,0,175.79,31a10.8,10.8,0,0,0-1.62-5.88,8.08,8.08,0,0,0-4.58-3.49q-3-.95-10.22-.94H146Zm0,31h16.72a39.51,39.51,0,0,0,6.05-.32,14.69,14.69,0,0,0,5.13-1.84,9.66,9.66,0,0,0,3.39-3.73,11.68,11.68,0,0,0,1.35-5.64A11.14,11.14,0,0,0,176.68,54a10.14,10.14,0,0,0-5.33-3.9A33.46,33.46,0,0,0,161.52,49H146Z" transform="translate(-1.06 -0.97)"/><path class="cls-1" d="M192.65,80l25.8-67.16H228L255.51,80H245.4l-7.84-20.34H209.47L202.09,80ZM212,52.4H234.8l-7-18.62q-3.21-8.49-4.76-13.93a85.07,85.07,0,0,1-3.62,12.82Z" transform="translate(-1.06 -0.97)"/><polygon class="cls-1" points="304.49 78.37 304.49 11.21 313.38 11.21 313.38 44.52 346.73 11.21 358.78 11.21 330.6 38.4 360.02 78.35 348.29 78.35 324.37 44.38 313.38 55.09 313.38 78.37 304.49 78.37"/><path class="cls-1" d="M387.42,79.34V50.89L361.54,12.18h10.81l13.24,20.24q3.68,5.69,6.83,11.37,3-5.26,7.33-11.87l13-19.74h10.35l-26.8,38.71V79.34Z" transform="translate(-1.06 -0.97)"/><polygon class="cls-1" points="304.64 78.37 304.64 25.59 269.31 78.37 260.19 78.37 260.19 11.21 268.72 11.21 268.72 63.92 304.06 11.21 313.19 11.21 313.19 78.37 304.64 78.37"/><path class="cls-1" d="M46,12.8h8.89V51.6q0,10.13-2.29,16.08a19.6,19.6,0,0,1-8.27,9.7q-6,3.74-15.69,3.73-9.45,0-15.44-3.25a18.61,18.61,0,0,1-8.57-9.42Q2.07,62.26,2.06,51.6V12.8H11V51.56q0,8.74,1.63,12.89a12.35,12.35,0,0,0,5.59,6.41,19.37,19.37,0,0,0,9.69,2.25q9.78,0,14-4.45T46,51.58Z" transform="translate(-1.06 -0.97)"/><rect class="cls-1" x="1" y="83.78" width="52.83" height="7.22"/><circle class="cls-1" cx="17.11" cy="4.61" r="3.61"/><circle class="cls-1" cx="37.72" cy="4.61" r="3.61"/></svg>